<svg xmlns="http://www.w3.org/2000/svg">
  <!-- Midnight Alibi rank badges, rank-01 (Clue Hunter) to rank-18 (Baker Street Detective).
       Tiers: ink-stamp roundels (1-5), enamel shields (6-13), gold medallions (14-18).
       Generated by hand-authored geometry; see specs/001-detective-profile-ranks. -->
  <symbol id="rank-01" viewBox="0 0 64 64"><title>Clue Hunter</title><circle cx="32" cy="32" r="31" fill="#eadfc4"/><circle cx="32" cy="32" r="28.5" fill="none" stroke="#2b2417" stroke-width="2"/><circle cx="32" cy="32" r="25" fill="none" stroke="#2b2417" stroke-width="0.8" stroke-dasharray="2 2"/><g fill="none" stroke="#2b2417" stroke-width="2.6" stroke-linecap="round" stroke-linejoin="round"><circle cx="29" cy="29" r="8"/><path d="M35 35 L43 43"/></g></symbol>
  <symbol id="rank-02" viewBox="0 0 64 64"><title>Gumshoe</title><circle cx="32" cy="32" r="31" fill="#eadfc4"/><circle cx="32" cy="32" r="28.5" fill="none" stroke="#2b2417" stroke-width="2"/><circle cx="32" cy="32" r="25" fill="none" stroke="#2b2417" stroke-width="0.8" stroke-dasharray="2 2"/><g fill="none" stroke="#2b2417" stroke-width="2.6" stroke-linecap="round" stroke-linejoin="round"><path d="M24 22 c3 0 5 3 5 7 s-2 7 -5 7 s-4 -3 -4 -7 s1 -7 4 -7Z"/><path d="M22 40 c0 3 4 3 4 0"/><path d="M39 26 c3 0 5 3 5 7 s-2 7 -5 7 s-4 -3 -4 -7 s1 -7 4 -7Z"/><path d="M37 44 c0 3 4 3 4 0"/></g></symbol>
  <symbol id="rank-03" viewBox="0 0 64 64"><title>Case Cracker</title><circle cx="32" cy="32" r="31" fill="#eadfc4"/><circle cx="32" cy="32" r="28.5" fill="none" stroke="#2b2417" stroke-width="2"/><circle cx="32" cy="32" r="25" fill="none" stroke="#2b2417" stroke-width="0.8" stroke-dasharray="2 2"/><g fill="none" stroke="#2b2417" stroke-width="2.6" stroke-linecap="round" stroke-linejoin="round"><circle cx="25" cy="32" r="6"/><path d="M31 32 H45 M41 32 V37 M45 32 V36"/><path d="M22 29 l3 3 l-2 3"/></g></symbol>
  <symbol id="rank-04" viewBox="0 0 64 64"><title>Amateur Sleuth</title><circle cx="32" cy="32" r="31" fill="#eadfc4"/><circle cx="32" cy="32" r="28.5" fill="none" stroke="#2b2417" stroke-width="2"/><circle cx="32" cy="32" r="25" fill="none" stroke="#2b2417" stroke-width="0.8" stroke-dasharray="2 2"/><g fill="none" stroke="#2b2417" stroke-width="2.6" stroke-linecap="round" stroke-linejoin="round"><path d="M22 20 H40 V44 H22 Z"/><path d="M26 20 V44"/><path d="M30 27 H37 M30 32 H37 M30 37 H35"/><path d="M42 22 L46 18"/></g></symbol>
  <symbol id="rank-05" viewBox="0 0 64 64"><title>Private Eye</title><circle cx="32" cy="32" r="31" fill="#eadfc4"/><circle cx="32" cy="32" r="28.5" fill="none" stroke="#2b2417" stroke-width="2"/><circle cx="32" cy="32" r="25" fill="none" stroke="#2b2417" stroke-width="0.8" stroke-dasharray="2 2"/><g fill="none" stroke="#2b2417" stroke-width="2.6" stroke-linecap="round" stroke-linejoin="round"><path d="M18 32 C23 24 41 24 46 32 C41 40 23 40 18 32 Z"/><circle cx="32" cy="32" r="4.5"/><circle cx="32" cy="32" r="1" fill="#2b2417"/></g></symbol>
  <symbol id="rank-06" viewBox="0 0 64 64"><title>Constable</title><circle cx="32" cy="32" r="31" fill="#152848"/><circle cx="32" cy="32" r="29" fill="none" stroke="#c9a14f" stroke-width="2.4"/><path d="M32 12 L48 18 V31 C48 42 41 49 32 53 C23 49 16 42 16 31 V18 Z" fill="#1f3a68" stroke="#c9a14f" stroke-width="2.2" stroke-linejoin="round"/><g fill="none" stroke="#c9a14f" stroke-width="2.6" stroke-linecap="round" stroke-linejoin="round"><path d="M24 33 L32 28 L40 33"/></g></symbol>
  <symbol id="rank-07" viewBox="0 0 64 64"><title>Investigator</title><circle cx="32" cy="32" r="31" fill="#152848"/><circle cx="32" cy="32" r="29" fill="none" stroke="#c9a14f" stroke-width="2.4"/><path d="M32 12 L48 18 V31 C48 42 41 49 32 53 C23 49 16 42 16 31 V18 Z" fill="#1f3a68" stroke="#c9a14f" stroke-width="2.2" stroke-linejoin="round"/><g fill="none" stroke="#c9a14f" stroke-width="2.6" stroke-linecap="round" stroke-linejoin="round"><path d="M24 30 L32 25 L40 30"/><path d="M24 36 L32 31 L40 36"/></g></symbol>
  <symbol id="rank-08" viewBox="0 0 64 64"><title>Shadow Investigator</title><circle cx="32" cy="32" r="31" fill="#152848"/><circle cx="32" cy="32" r="29" fill="none" stroke="#c9a14f" stroke-width="2.4"/><path d="M32 12 L48 18 V31 C48 42 41 49 32 53 C23 49 16 42 16 31 V18 Z" fill="#1f3a68" stroke="#c9a14f" stroke-width="2.2" stroke-linejoin="round"/><path d="M32 13 L47 18 V31 C47 41 40 48 32 52 Z" fill="#0b1426" opacity="0.55"/><g fill="none" stroke="#c9a14f" stroke-width="2.6" stroke-linecap="round" stroke-linejoin="round"><path d="M24 30 L32 25 L40 30"/><path d="M24 36 L32 31 L40 36"/></g></symbol>
  <symbol id="rank-09" viewBox="0 0 64 64"><title>Senior Investigator</title><circle cx="32" cy="32" r="31" fill="#152848"/><circle cx="32" cy="32" r="29" fill="none" stroke="#c9a14f" stroke-width="2.4"/><path d="M32 12 L48 18 V31 C48 42 41 49 32 53 C23 49 16 42 16 31 V18 Z" fill="#1f3a68" stroke="#c9a14f" stroke-width="2.2" stroke-linejoin="round"/><g fill="none" stroke="#c9a14f" stroke-width="2.6" stroke-linecap="round" stroke-linejoin="round"><path d="M24 27 L32 22 L40 27"/><path d="M24 33 L32 28 L40 33"/><path d="M24 39 L32 34 L40 39"/></g></symbol>
  <symbol id="rank-10" viewBox="0 0 64 64"><title>Lead Investigator</title><circle cx="32" cy="32" r="31" fill="#152848"/><circle cx="32" cy="32" r="29" fill="none" stroke="#c9a14f" stroke-width="2.4"/><path d="M32 12 L48 18 V31 C48 42 41 49 32 53 C23 49 16 42 16 31 V18 Z" fill="#1f3a68" stroke="#c9a14f" stroke-width="2.2" stroke-linejoin="round"/><g fill="none" stroke="#c9a14f" stroke-width="2.6" stroke-linecap="round" stroke-linejoin="round"><path d="M24 25 L32 20 L40 25"/><path d="M24 31 L32 26 L40 31"/><path d="M24 37 L32 32 L40 37"/><path d="M24 43 H40"/></g></symbol>
  <symbol id="rank-11" viewBox="0 0 64 64"><title>Detective</title><circle cx="32" cy="32" r="31" fill="#152848"/><circle cx="32" cy="32" r="29" fill="none" stroke="#c9a14f" stroke-width="2.4"/><path d="M32 12 L48 18 V31 C48 42 41 49 32 53 C23 49 16 42 16 31 V18 Z" fill="#1f3a68" stroke="#c9a14f" stroke-width="2.2" stroke-linejoin="round"/><g fill="none" stroke="#c9a14f" stroke-width="2.6" stroke-linecap="round" stroke-linejoin="round"><polygon points="32.00,24.00 33.85,28.45 38.66,28.84 35.00,31.97 36.11,36.66 32.00,34.15 27.89,36.66 29.00,31.97 25.34,28.84 30.15,28.45" fill="#c9a14f" stroke="none"/></g></symbol>
  <symbol id="rank-12" viewBox="0 0 64 64"><title>Senior Detective</title><circle cx="32" cy="32" r="31" fill="#152848"/><circle cx="32" cy="32" r="29" fill="none" stroke="#c9a14f" stroke-width="2.4"/><path d="M32 12 L48 18 V31 C48 42 41 49 32 53 C23 49 16 42 16 31 V18 Z" fill="#1f3a68" stroke="#c9a14f" stroke-width="2.2" stroke-linejoin="round"/><g fill="none" stroke="#c9a14f" stroke-width="2.6" stroke-linecap="round" stroke-linejoin="round"><polygon points="26.00,25.50 27.45,29.00 31.23,29.30 28.35,31.76 29.23,35.45 26.00,33.48 22.77,35.45 23.65,31.76 20.77,29.30 24.55,29.00" fill="#c9a14f" stroke="none"/><polygon points="38.00,25.50 39.45,29.00 43.23,29.30 40.35,31.76 41.23,35.45 38.00,33.48 34.77,35.45 35.65,31.76 32.77,29.30 36.55,29.00" fill="#c9a14f" stroke="none"/></g></symbol>
  <symbol id="rank-13" viewBox="0 0 64 64"><title>Lead Detective</title><circle cx="32" cy="32" r="31" fill="#152848"/><circle cx="32" cy="32" r="29" fill="none" stroke="#c9a14f" stroke-width="2.4"/><path d="M32 12 L48 18 V31 C48 42 41 49 32 53 C23 49 16 42 16 31 V18 Z" fill="#1f3a68" stroke="#c9a14f" stroke-width="2.2" stroke-linejoin="round"/><g fill="none" stroke="#c9a14f" stroke-width="2.6" stroke-linecap="round" stroke-linejoin="round"><polygon points="32.00,20.00 33.32,23.18 36.76,23.45 34.14,25.70 34.94,29.05 32.00,27.25 29.06,29.05 29.86,25.70 27.24,23.45 30.68,23.18" fill="#c9a14f" stroke="none"/><polygon points="25.00,31.00 26.32,34.18 29.76,34.45 27.14,36.70 27.94,40.05 25.00,38.25 22.06,40.05 22.86,36.70 20.24,34.45 23.68,34.18" fill="#c9a14f" stroke="none"/><polygon points="39.00,31.00 40.32,34.18 43.76,34.45 41.14,36.70 41.94,40.05 39.00,38.25 36.06,40.05 36.86,36.70 34.24,34.45 37.68,34.18" fill="#c9a14f" stroke="none"/></g></symbol>
  <symbol id="rank-14" viewBox="0 0 64 64"><title>Inspector</title><defs><radialGradient id="g14" cx="0.35" cy="0.3" r="0.8"><stop offset="0" stop-color="#f3d78a"/><stop offset="0.55" stop-color="#d8ab45"/><stop offset="1" stop-color="#7d5a1e"/></radialGradient></defs><circle cx="32" cy="32" r="31" fill="url(#g14)"/><circle cx="59.50" cy="32.00" r="0.9" fill="#7d5a1e"/><circle cx="59.08" cy="36.78" r="0.9" fill="#7d5a1e"/><circle cx="57.84" cy="41.41" r="0.9" fill="#7d5a1e"/><circle cx="55.82" cy="45.75" r="0.9" fill="#7d5a1e"/><circle cx="53.07" cy="49.68" r="0.9" fill="#7d5a1e"/><circle cx="49.68" cy="53.07" r="0.9" fill="#7d5a1e"/><circle cx="45.75" cy="55.82" r="0.9" fill="#7d5a1e"/><circle cx="41.41" cy="57.84" r="0.9" fill="#7d5a1e"/><circle cx="36.78" cy="59.08" r="0.9" fill="#7d5a1e"/><circle cx="32.00" cy="59.50" r="0.9" fill="#7d5a1e"/><circle cx="27.22" cy="59.08" r="0.9" fill="#7d5a1e"/><circle cx="22.59" cy="57.84" r="0.9" fill="#7d5a1e"/><circle cx="18.25" cy="55.82" r="0.9" fill="#7d5a1e"/><circle cx="14.32" cy="53.07" r="0.9" fill="#7d5a1e"/><circle cx="10.93" cy="49.68" r="0.9" fill="#7d5a1e"/><circle cx="8.18" cy="45.75" r="0.9" fill="#7d5a1e"/><circle cx="6.16" cy="41.41" r="0.9" fill="#7d5a1e"/><circle cx="4.92" cy="36.78" r="0.9" fill="#7d5a1e"/><circle cx="4.50" cy="32.00" r="0.9" fill="#7d5a1e"/><circle cx="4.92" cy="27.22" r="0.9" fill="#7d5a1e"/><circle cx="6.16" cy="22.59" r="0.9" fill="#7d5a1e"/><circle cx="8.18" cy="18.25" r="0.9" fill="#7d5a1e"/><circle cx="10.93" cy="14.32" r="0.9" fill="#7d5a1e"/><circle cx="14.32" cy="10.93" r="0.9" fill="#7d5a1e"/><circle cx="18.25" cy="8.18" r="0.9" fill="#7d5a1e"/><circle cx="22.59" cy="6.16" r="0.9" fill="#7d5a1e"/><circle cx="27.22" cy="4.92" r="0.9" fill="#7d5a1e"/><circle cx="32.00" cy="4.50" r="0.9" fill="#7d5a1e"/><circle cx="36.78" cy="4.92" r="0.9" fill="#7d5a1e"/><circle cx="41.41" cy="6.16" r="0.9" fill="#7d5a1e"/><circle cx="45.75" cy="8.18" r="0.9" fill="#7d5a1e"/><circle cx="49.68" cy="10.93" r="0.9" fill="#7d5a1e"/><circle cx="53.07" cy="14.32" r="0.9" fill="#7d5a1e"/><circle cx="55.82" cy="18.25" r="0.9" fill="#7d5a1e"/><circle cx="57.84" cy="22.59" r="0.9" fill="#7d5a1e"/><circle cx="59.08" cy="27.23" r="0.9" fill="#7d5a1e"/><circle cx="32" cy="32" r="24.5" fill="none" stroke="#7d5a1e" stroke-width="1.2"/><g fill="none" stroke="#2b2417" stroke-width="2.6" stroke-linecap="round" stroke-linejoin="round"><path d="M21 40 L19 26 L26 31 L32 22 L38 31 L45 26 L43 40 Z"/><path d="M21 44 H43"/></g></symbol>
  <symbol id="rank-15" viewBox="0 0 64 64"><title>Chief Inspector</title><defs><radialGradient id="g15" cx="0.35" cy="0.3" r="0.8"><stop offset="0" stop-color="#f3d78a"/><stop offset="0.55" stop-color="#d8ab45"/><stop offset="1" stop-color="#7d5a1e"/></radialGradient></defs><circle cx="32" cy="32" r="31" fill="url(#g15)"/><circle cx="59.50" cy="32.00" r="0.9" fill="#7d5a1e"/><circle cx="59.08" cy="36.78" r="0.9" fill="#7d5a1e"/><circle cx="57.84" cy="41.41" r="0.9" fill="#7d5a1e"/><circle cx="55.82" cy="45.75" r="0.9" fill="#7d5a1e"/><circle cx="53.07" cy="49.68" r="0.9" fill="#7d5a1e"/><circle cx="49.68" cy="53.07" r="0.9" fill="#7d5a1e"/><circle cx="45.75" cy="55.82" r="0.9" fill="#7d5a1e"/><circle cx="41.41" cy="57.84" r="0.9" fill="#7d5a1e"/><circle cx="36.78" cy="59.08" r="0.9" fill="#7d5a1e"/><circle cx="32.00" cy="59.50" r="0.9" fill="#7d5a1e"/><circle cx="27.22" cy="59.08" r="0.9" fill="#7d5a1e"/><circle cx="22.59" cy="57.84" r="0.9" fill="#7d5a1e"/><circle cx="18.25" cy="55.82" r="0.9" fill="#7d5a1e"/><circle cx="14.32" cy="53.07" r="0.9" fill="#7d5a1e"/><circle cx="10.93" cy="49.68" r="0.9" fill="#7d5a1e"/><circle cx="8.18" cy="45.75" r="0.9" fill="#7d5a1e"/><circle cx="6.16" cy="41.41" r="0.9" fill="#7d5a1e"/><circle cx="4.92" cy="36.78" r="0.9" fill="#7d5a1e"/><circle cx="4.50" cy="32.00" r="0.9" fill="#7d5a1e"/><circle cx="4.92" cy="27.22" r="0.9" fill="#7d5a1e"/><circle cx="6.16" cy="22.59" r="0.9" fill="#7d5a1e"/><circle cx="8.18" cy="18.25" r="0.9" fill="#7d5a1e"/><circle cx="10.93" cy="14.32" r="0.9" fill="#7d5a1e"/><circle cx="14.32" cy="10.93" r="0.9" fill="#7d5a1e"/><circle cx="18.25" cy="8.18" r="0.9" fill="#7d5a1e"/><circle cx="22.59" cy="6.16" r="0.9" fill="#7d5a1e"/><circle cx="27.22" cy="4.92" r="0.9" fill="#7d5a1e"/><circle cx="32.00" cy="4.50" r="0.9" fill="#7d5a1e"/><circle cx="36.78" cy="4.92" r="0.9" fill="#7d5a1e"/><circle cx="41.41" cy="6.16" r="0.9" fill="#7d5a1e"/><circle cx="45.75" cy="8.18" r="0.9" fill="#7d5a1e"/><circle cx="49.68" cy="10.93" r="0.9" fill="#7d5a1e"/><circle cx="53.07" cy="14.32" r="0.9" fill="#7d5a1e"/><circle cx="55.82" cy="18.25" r="0.9" fill="#7d5a1e"/><circle cx="57.84" cy="22.59" r="0.9" fill="#7d5a1e"/><circle cx="59.08" cy="27.23" r="0.9" fill="#7d5a1e"/><circle cx="32" cy="32" r="24.5" fill="none" stroke="#7d5a1e" stroke-width="1.2"/><g fill="none" stroke="#2b2417" stroke-width="2.6" stroke-linecap="round" stroke-linejoin="round"><path d="M24 38 L23 28 L28 32 L32 26 L36 32 L41 28 L40 38 Z"/><path d="M20 44 C16 38 16 30 20 24"/><path d="M44 44 C48 38 48 30 44 24"/><path d="M19 38 l-3 -1 M18 32 l-3 -2 M20 27 l-2 -3 M45 38 l3 -1 M46 32 l3 -2 M44 27 l2 -3"/></g></symbol>
  <symbol id="rank-16" viewBox="0 0 64 64"><title>Ace Detective</title><defs><radialGradient id="g16" cx="0.35" cy="0.3" r="0.8"><stop offset="0" stop-color="#f3d78a"/><stop offset="0.55" stop-color="#d8ab45"/><stop offset="1" stop-color="#7d5a1e"/></radialGradient></defs><circle cx="32" cy="32" r="31" fill="url(#g16)"/><circle cx="59.50" cy="32.00" r="0.9" fill="#7d5a1e"/><circle cx="59.08" cy="36.78" r="0.9" fill="#7d5a1e"/><circle cx="57.84" cy="41.41" r="0.9" fill="#7d5a1e"/><circle cx="55.82" cy="45.75" r="0.9" fill="#7d5a1e"/><circle cx="53.07" cy="49.68" r="0.9" fill="#7d5a1e"/><circle cx="49.68" cy="53.07" r="0.9" fill="#7d5a1e"/><circle cx="45.75" cy="55.82" r="0.9" fill="#7d5a1e"/><circle cx="41.41" cy="57.84" r="0.9" fill="#7d5a1e"/><circle cx="36.78" cy="59.08" r="0.9" fill="#7d5a1e"/><circle cx="32.00" cy="59.50" r="0.9" fill="#7d5a1e"/><circle cx="27.22" cy="59.08" r="0.9" fill="#7d5a1e"/><circle cx="22.59" cy="57.84" r="0.9" fill="#7d5a1e"/><circle cx="18.25" cy="55.82" r="0.9" fill="#7d5a1e"/><circle cx="14.32" cy="53.07" r="0.9" fill="#7d5a1e"/><circle cx="10.93" cy="49.68" r="0.9" fill="#7d5a1e"/><circle cx="8.18" cy="45.75" r="0.9" fill="#7d5a1e"/><circle cx="6.16" cy="41.41" r="0.9" fill="#7d5a1e"/><circle cx="4.92" cy="36.78" r="0.9" fill="#7d5a1e"/><circle cx="4.50" cy="32.00" r="0.9" fill="#7d5a1e"/><circle cx="4.92" cy="27.22" r="0.9" fill="#7d5a1e"/><circle cx="6.16" cy="22.59" r="0.9" fill="#7d5a1e"/><circle cx="8.18" cy="18.25" r="0.9" fill="#7d5a1e"/><circle cx="10.93" cy="14.32" r="0.9" fill="#7d5a1e"/><circle cx="14.32" cy="10.93" r="0.9" fill="#7d5a1e"/><circle cx="18.25" cy="8.18" r="0.9" fill="#7d5a1e"/><circle cx="22.59" cy="6.16" r="0.9" fill="#7d5a1e"/><circle cx="27.22" cy="4.92" r="0.9" fill="#7d5a1e"/><circle cx="32.00" cy="4.50" r="0.9" fill="#7d5a1e"/><circle cx="36.78" cy="4.92" r="0.9" fill="#7d5a1e"/><circle cx="41.41" cy="6.16" r="0.9" fill="#7d5a1e"/><circle cx="45.75" cy="8.18" r="0.9" fill="#7d5a1e"/><circle cx="49.68" cy="10.93" r="0.9" fill="#7d5a1e"/><circle cx="53.07" cy="14.32" r="0.9" fill="#7d5a1e"/><circle cx="55.82" cy="18.25" r="0.9" fill="#7d5a1e"/><circle cx="57.84" cy="22.59" r="0.9" fill="#7d5a1e"/><circle cx="59.08" cy="27.23" r="0.9" fill="#7d5a1e"/><circle cx="32" cy="32" r="24.5" fill="none" stroke="#7d5a1e" stroke-width="1.2"/><g fill="none" stroke="#2b2417" stroke-width="2.6" stroke-linecap="round" stroke-linejoin="round"><polygon points="32.00,20.00 35.17,27.63 43.41,28.29 37.14,33.67 39.05,41.71 32.00,37.40 24.95,41.71 26.86,33.67 20.59,28.29 28.83,27.63" fill="#2b2417" stroke="none"/></g></symbol>
  <symbol id="rank-17" viewBox="0 0 64 64"><title>Master Sleuth</title><defs><radialGradient id="g17" cx="0.35" cy="0.3" r="0.8"><stop offset="0" stop-color="#f3d78a"/><stop offset="0.55" stop-color="#d8ab45"/><stop offset="1" stop-color="#7d5a1e"/></radialGradient></defs><circle cx="32" cy="32" r="31" fill="url(#g17)"/><circle cx="59.50" cy="32.00" r="0.9" fill="#7d5a1e"/><circle cx="59.08" cy="36.78" r="0.9" fill="#7d5a1e"/><circle cx="57.84" cy="41.41" r="0.9" fill="#7d5a1e"/><circle cx="55.82" cy="45.75" r="0.9" fill="#7d5a1e"/><circle cx="53.07" cy="49.68" r="0.9" fill="#7d5a1e"/><circle cx="49.68" cy="53.07" r="0.9" fill="#7d5a1e"/><circle cx="45.75" cy="55.82" r="0.9" fill="#7d5a1e"/><circle cx="41.41" cy="57.84" r="0.9" fill="#7d5a1e"/><circle cx="36.78" cy="59.08" r="0.9" fill="#7d5a1e"/><circle cx="32.00" cy="59.50" r="0.9" fill="#7d5a1e"/><circle cx="27.22" cy="59.08" r="0.9" fill="#7d5a1e"/><circle cx="22.59" cy="57.84" r="0.9" fill="#7d5a1e"/><circle cx="18.25" cy="55.82" r="0.9" fill="#7d5a1e"/><circle cx="14.32" cy="53.07" r="0.9" fill="#7d5a1e"/><circle cx="10.93" cy="49.68" r="0.9" fill="#7d5a1e"/><circle cx="8.18" cy="45.75" r="0.9" fill="#7d5a1e"/><circle cx="6.16" cy="41.41" r="0.9" fill="#7d5a1e"/><circle cx="4.92" cy="36.78" r="0.9" fill="#7d5a1e"/><circle cx="4.50" cy="32.00" r="0.9" fill="#7d5a1e"/><circle cx="4.92" cy="27.22" r="0.9" fill="#7d5a1e"/><circle cx="6.16" cy="22.59" r="0.9" fill="#7d5a1e"/><circle cx="8.18" cy="18.25" r="0.9" fill="#7d5a1e"/><circle cx="10.93" cy="14.32" r="0.9" fill="#7d5a1e"/><circle cx="14.32" cy="10.93" r="0.9" fill="#7d5a1e"/><circle cx="18.25" cy="8.18" r="0.9" fill="#7d5a1e"/><circle cx="22.59" cy="6.16" r="0.9" fill="#7d5a1e"/><circle cx="27.22" cy="4.92" r="0.9" fill="#7d5a1e"/><circle cx="32.00" cy="4.50" r="0.9" fill="#7d5a1e"/><circle cx="36.78" cy="4.92" r="0.9" fill="#7d5a1e"/><circle cx="41.41" cy="6.16" r="0.9" fill="#7d5a1e"/><circle cx="45.75" cy="8.18" r="0.9" fill="#7d5a1e"/><circle cx="49.68" cy="10.93" r="0.9" fill="#7d5a1e"/><circle cx="53.07" cy="14.32" r="0.9" fill="#7d5a1e"/><circle cx="55.82" cy="18.25" r="0.9" fill="#7d5a1e"/><circle cx="57.84" cy="22.59" r="0.9" fill="#7d5a1e"/><circle cx="59.08" cy="27.23" r="0.9" fill="#7d5a1e"/><circle cx="32" cy="32" r="24.5" fill="none" stroke="#7d5a1e" stroke-width="1.2"/><g fill="none" stroke="#2b2417" stroke-width="2.6" stroke-linecap="round" stroke-linejoin="round"><circle cx="28" cy="28" r="7"/><path d="M33 33 L41 41"/><path d="M40 20 c-3 0 -4 3 -2 5 l-6 8"/><path d="M36 17 c3 -2 7 0 7 3 c0 2 -2 3 -4 3"/></g></symbol>
  <symbol id="rank-18" viewBox="0 0 64 64"><title>Baker Street Detective</title><defs><radialGradient id="g18" cx="0.35" cy="0.3" r="0.8"><stop offset="0" stop-color="#f3d78a"/><stop offset="0.55" stop-color="#d8ab45"/><stop offset="1" stop-color="#7d5a1e"/></radialGradient></defs><circle cx="32" cy="32" r="31" fill="url(#g18)"/><circle cx="59.50" cy="32.00" r="0.9" fill="#7d5a1e"/><circle cx="59.08" cy="36.78" r="0.9" fill="#7d5a1e"/><circle cx="57.84" cy="41.41" r="0.9" fill="#7d5a1e"/><circle cx="55.82" cy="45.75" r="0.9" fill="#7d5a1e"/><circle cx="53.07" cy="49.68" r="0.9" fill="#7d5a1e"/><circle cx="49.68" cy="53.07" r="0.9" fill="#7d5a1e"/><circle cx="45.75" cy="55.82" r="0.9" fill="#7d5a1e"/><circle cx="41.41" cy="57.84" r="0.9" fill="#7d5a1e"/><circle cx="36.78" cy="59.08" r="0.9" fill="#7d5a1e"/><circle cx="32.00" cy="59.50" r="0.9" fill="#7d5a1e"/><circle cx="27.22" cy="59.08" r="0.9" fill="#7d5a1e"/><circle cx="22.59" cy="57.84" r="0.9" fill="#7d5a1e"/><circle cx="18.25" cy="55.82" r="0.9" fill="#7d5a1e"/><circle cx="14.32" cy="53.07" r="0.9" fill="#7d5a1e"/><circle cx="10.93" cy="49.68" r="0.9" fill="#7d5a1e"/><circle cx="8.18" cy="45.75" r="0.9" fill="#7d5a1e"/><circle cx="6.16" cy="41.41" r="0.9" fill="#7d5a1e"/><circle cx="4.92" cy="36.78" r="0.9" fill="#7d5a1e"/><circle cx="4.50" cy="32.00" r="0.9" fill="#7d5a1e"/><circle cx="4.92" cy="27.22" r="0.9" fill="#7d5a1e"/><circle cx="6.16" cy="22.59" r="0.9" fill="#7d5a1e"/><circle cx="8.18" cy="18.25" r="0.9" fill="#7d5a1e"/><circle cx="10.93" cy="14.32" r="0.9" fill="#7d5a1e"/><circle cx="14.32" cy="10.93" r="0.9" fill="#7d5a1e"/><circle cx="18.25" cy="8.18" r="0.9" fill="#7d5a1e"/><circle cx="22.59" cy="6.16" r="0.9" fill="#7d5a1e"/><circle cx="27.22" cy="4.92" r="0.9" fill="#7d5a1e"/><circle cx="32.00" cy="4.50" r="0.9" fill="#7d5a1e"/><circle cx="36.78" cy="4.92" r="0.9" fill="#7d5a1e"/><circle cx="41.41" cy="6.16" r="0.9" fill="#7d5a1e"/><circle cx="45.75" cy="8.18" r="0.9" fill="#7d5a1e"/><circle cx="49.68" cy="10.93" r="0.9" fill="#7d5a1e"/><circle cx="53.07" cy="14.32" r="0.9" fill="#7d5a1e"/><circle cx="55.82" cy="18.25" r="0.9" fill="#7d5a1e"/><circle cx="57.84" cy="22.59" r="0.9" fill="#7d5a1e"/><circle cx="59.08" cy="27.23" r="0.9" fill="#7d5a1e"/><circle cx="32" cy="32" r="24.5" fill="none" stroke="#7d5a1e" stroke-width="1.2"/><g fill="none" stroke="#2b2417" stroke-width="2.6" stroke-linecap="round" stroke-linejoin="round"><path d="M32 17 V21 M27 21 H37 L35 31 H29 Z"/><path d="M32 31 V45 M27 45 H37"/><path d="M30 25 H34"/><rect x="22" y="47" width="20" height="7" rx="1" fill="#2b2417" stroke="none"/><text x="32" y="52.6" text-anchor="middle" font-family="Georgia, serif" font-size="6" font-weight="700" fill="#f3d78a" stroke="none">221B</text></g></symbol>
</svg>
